<svg xmlns="http://www.w3.org/2000/svg" viewBox="0 0 32 32" fill="none">
  <rect width="32" height="32" rx="8" fill="#0F172A"/>
  <path d="M9 12C9 10.3431 10.3431 9 12 9H20C21.6569 9 23 10.3431 23 12V13.5C23 13.7761 22.7761 14 22.5 14H20C19.7239 14 19.5 14.2239 19.5 14.5V17.5C19.5 17.7761 19.7239 18 20 18H22.5C22.7761 18 23 18.2239 23 18.5V20C23 21.6569 21.6569 23 20 23H12C10.3431 23 9 21.6569 9 20V18.5C9 18.2239 9.22386 18 9.5 18H12C12.2761 18 12.5 17.7761 12.5 17.5V14.5C12.5 14.2239 12.2761 14 12 14H9.5C9.22386 14 9 13.7761 9 13.5V12Z" fill="white"/>
  <circle cx="24" cy="8" r="2.5" fill="#14B8A6"/>
</svg>
