<svg xmlns="http://www.w3.org/2000/svg" viewBox="0 0 48 48" fill="none">
  <rect width="48" height="48" rx="12" fill="#0F172A"/>
  <path d="M14 18C14 15.7909 15.7909 14 18 14H30C32.2091 14 34 15.7909 34 18V20C34 20.5523 33.5523 21 33 21H30C29.4477 21 29 21.4477 29 22V26C29 26.5523 29.4477 27 30 27H33C33.5523 27 34 27.4477 34 28V30C34 32.2091 32.2091 34 30 34H18C15.7909 34 14 32.2091 14 30V28C14 27.4477 14.4477 27 15 27H18C18.5523 27 19 26.5523 19 26V22C19 21.4477 18.5523 21 18 21H15C14.4477 21 14 20.5523 14 20V18Z" fill="white"/>
  <circle cx="36" cy="12" r="4" fill="#14B8A6"/>
</svg>
